Coordinates
version=1
nRows=21
nColumns=12
inDegrees=yes

Units are S.I. units (second, meters, Newtons, ...)
Angles are in degrees

endheader
time	SC_y	SC_z	SC_x	AC_y	AC_z	AC_x	GH_y	GH_z	GH_yy	EL_x	PS_y
       0.0               -33.6          17.27          8.335          36.03          1.425          2.526          84.55          71.66          -84.9          129.0          71.35
   0.01478               -33.6          17.27          8.345          36.03          1.425          2.524          84.56          71.66         -84.87          129.0          71.34
   0.02956               -33.6          17.28          8.357          36.04          1.424          2.521          84.57          71.66         -84.84          128.9          71.34
   0.04433               -33.6          17.28          8.368          36.04          1.423          2.518          84.58          71.65         -84.81          128.9          71.34
   0.05911               -33.6          17.28          8.381          36.05          1.423          2.515           84.6          71.65         -84.78          128.9          71.33
   0.07389              -33.59          17.29          8.395          36.05          1.422          2.512          84.61          71.65         -84.74          128.9          71.33
   0.08867              -33.59          17.29          8.409          36.06          1.421          2.509          84.63          71.65          -84.7          128.9          71.32
    0.1034              -33.59           17.3          8.425          36.07           1.42          2.505          84.65          71.64         -84.66          128.9          71.32
    0.1182              -33.59           17.3          8.441          36.07          1.419          2.501          84.66          71.64         -84.61          128.9          71.31
     0.133              -33.59          17.31          8.459          36.08          1.418          2.497          84.68          71.63         -84.57          128.9           71.3
    0.1478              -33.58          17.31          8.478          36.09          1.417          2.493           84.7          71.63         -84.51          128.8           71.3
    0.1626              -33.58          17.32          8.499           36.1          1.416          2.488          84.72          71.63         -84.46          128.8          71.29
    0.1773              -33.58          17.32          8.521          36.11          1.415          2.483          84.75          71.62          -84.4          128.8          71.28
    0.1921              -33.58          17.33          8.545          36.12          1.414          2.477          84.77          71.62         -84.34          128.8          71.27
    0.2069              -33.57          17.34           8.57          36.13          1.412          2.471           84.8          71.61         -84.27          128.8          71.26
    0.2217              -33.57          17.34          8.598          36.14          1.411          2.465          84.83           71.6         -84.19          128.7          71.25
    0.2364              -33.57          17.35          8.629          36.16          1.409          2.458          84.87           71.6         -84.11          128.7          71.24
    0.2512              -33.56          17.36          8.662          36.17          1.407           2.45           84.9          71.59         -84.02          128.7          71.23
     0.266              -33.56          17.37          8.698          36.19          1.405          2.442          84.94          71.58         -83.92          128.6          71.22
    0.2808              -33.55          17.38          8.738           36.2          1.403          2.433          84.98          71.57         -83.81          128.6          71.21
    0.2956              -33.55           17.4          8.782          36.22          1.401          2.422          85.03          71.56          -83.7          128.6          71.19
